<svg xmlns="http://www.w3.org/2000/svg" xmlns:xlink="http://www.w3.org/1999/xlink" xmlns:lucid="lucid" width="1641.21" height="1116"><g transform="translate(-140 -80)" lucid:page-tab-id="HWEp-vi-RSFO"><path d="M0 0h1924.48v1266.6H0z" fill="#fff"/><path d="M300 100h360v307H300z" stroke="#333" stroke-width="2" fill="#fff"/><path d="M300 137.6h360m-360 80.7h360" stroke="#333" stroke-width="2" fill="none"/><use xlink:href="#a" transform="matrix(1,0,0,1,308,108) translate(146 14.6)"/><use xlink:href="#b" transform="matrix(1,0,0,1,312,145.6) translate(0 25.299999999999997)"/><use xlink:href="#c" transform="matrix(1,0,0,1,312,145.6) translate(15 25.299999999999997)"/><use xlink:href="#b" transform="matrix(1,0,0,1,312,145.6) translate(0 46.9)"/><use xlink:href="#d" transform="matrix(1,0,0,1,312,145.6) translate(15 46.9)"/><use xlink:href="#e" transform="matrix(1,0,0,1,312,226.3) translate(0 25.300000000000004)"/><use xlink:href="#f" transform="matrix(1,0,0,1,312,226.3) translate(15.5 25.300000000000004)"/><use xlink:href="#g" transform="matrix(1,0,0,1,312,226.3) translate(121.30000000000001 25.300000000000004)"/><use xlink:href="#h" transform="matrix(1,0,0,1,312,226.3) translate(186.20000000000002 25.300000000000004)"/><use xlink:href="#e" transform="matrix(1,0,0,1,312,226.3) translate(0 46.900000000000006)"/><use xlink:href="#i" transform="matrix(1,0,0,1,312,226.3) translate(15.5 46.900000000000006)"/><use xlink:href="#j" transform="matrix(1,0,0,1,312,226.3) translate(114.30000000000001 46.900000000000006)"/><use xlink:href="#k" transform="matrix(1,0,0,1,312,226.3) translate(0 68.50000000000001)"/><use xlink:href="#l" transform="matrix(1,0,0,1,312,226.3) translate(15.5 68.50000000000001)"/><use xlink:href="#b" transform="matrix(1,0,0,1,312,226.3) translate(0 90.10000000000002)"/><use xlink:href="#m" transform="matrix(1,0,0,1,312,226.3) translate(15 90.10000000000002)"/><use xlink:href="#j" transform="matrix(1,0,0,1,312,226.3) translate(158.75 90.10000000000002)"/><use xlink:href="#b" transform="matrix(1,0,0,1,312,226.3) translate(0 111.70000000000002)"/><use xlink:href="#n" transform="matrix(1,0,0,1,312,226.3) translate(15 111.70000000000002)"/><use xlink:href="#o" transform="matrix(1,0,0,1,312,226.3) translate(128.60000000000002 111.70000000000002)"/><use xlink:href="#p" transform="matrix(1,0,0,1,312,226.3) translate(217.45000000000005 111.70000000000002)"/><use xlink:href="#b" transform="matrix(1,0,0,1,312,226.3) translate(0 133.3)"/><use xlink:href="#q" transform="matrix(1,0,0,1,312,226.3) translate(15 133.3)"/><use xlink:href="#o" transform="matrix(1,0,0,1,312,226.3) translate(146.60000000000002 133.3)"/><use xlink:href="#p" transform="matrix(1,0,0,1,312,226.3) translate(235.45000000000005 133.3)"/><use xlink:href="#b" transform="matrix(1,0,0,1,312,226.3) translate(0 154.9)"/><use xlink:href="#r" transform="matrix(1,0,0,1,312,226.3) translate(15 154.9)"/><use xlink:href="#o" transform="matrix(1,0,0,1,312,226.3) translate(127.75000000000001 154.9)"/><use xlink:href="#s" transform="matrix(1,0,0,1,312,226.3) translate(216.60000000000002 154.9)"/><path d="M160 562h300v156H160z" stroke="#333" stroke-width="2" fill="#fff"/><path d="M160 599.6h300m-300 59.1h300" stroke="#333" stroke-width="2" fill="none"/><use xlink:href="#t" transform="matrix(1,0,0,1,168,570) translate(125.525 14.6)"/><use xlink:href="#k" transform="matrix(1,0,0,1,172,666.7) translate(0 25.6)"/><use xlink:href="#u" transform="matrix(1,0,0,1,172,666.7) translate(15.5 25.6)"/><path d="M381.02 485h-59l-3 .4-2.76 1.14-2.4 1.83-1.82 2.4-1.14 2.75-.4 3v63.98h-1v-64.03l.42-3.2 1.24-3 2-2.6 2.6-2 3-1.25 3.2-.42h59.06zm99.48-12.47l-.42 3.2-1.24 3-2 2.6-2.6 2-3 1.25-3.2.42h-59.06v-1h59l3-.4 2.76-1.14 2.4-1.83 1.82-2.4 1.14-2.75.4-3v-48.1h1zM310.5 561h-1v-.5h1z" fill="#333"/><path d="M484.64 423.88h-9.28l4.64-14.26z" fill="#fff"/><path d="M485.32 424.38h-10.64L480 408zm-9.27-1h7.9L480 411.24z" fill="#333"/><use xlink:href="#v" transform="matrix(1,0,0,1,381.025,473.7) translate(0 14.4)"/><use xlink:href="#w" transform="matrix(1,0,0,1,381.025,473.7) translate(17.95 14.4)"/><path d="M500 562h300v156H500z" stroke="#333" stroke-width="2" fill="#fff"/><path d="M500 599.6h300m-300 59.1h300" stroke="#333" stroke-width="2" fill="none"/><use xlink:href="#x" transform="matrix(1,0,0,1,508,570) translate(123.875 14.6)"/><use xlink:href="#k" transform="matrix(1,0,0,1,512,666.7) translate(0 25.6)"/><use xlink:href="#u" transform="matrix(1,0,0,1,512,666.7) translate(15.5 25.6)"/><path d="M638.03 484l3.2.42 3 1.24 2.6 2 2 2.6 1.25 3 .42 3.2v64.04h-1v-63.97l-.4-3-1.14-2.77-1.83-2.4-2.4-1.82-2.75-1.14-3-.4h-59v-1zm-157.13-8.52l1.14 2.76 1.83 2.4 2.4 1.82 2.75 1.14 3 .4h59v1h-59.05l-3.2-.42-3-1.24-2.6-2-2-2.6-1.25-3-.42-3.2v-48.16h1v48.1zM650.5 561h-1v-.5h1z" fill="#333"/><path d="M484.64 423.88h-9.28l4.64-14.26z" fill="#fff"/><path d="M485.32 424.38h-10.64L480 408zm-9.27-1h7.9L480 411.24z" fill="#333"/><use xlink:href="#v" transform="matrix(1,0,0,1,551.025,473.7) translate(0 14.4)"/><use xlink:href="#w" transform="matrix(1,0,0,1,551.025,473.7) translate(17.95 14.4)"/><path d="M1101.2 165h400v177h-400z" stroke="#333" stroke-width="2" fill="#fff"/><path d="M1101.2 202.6h400m-400 59.1h400" stroke="#333" stroke-width="2" fill="none"/><use xlink:href="#y" transform="matrix(1,0,0,1,1109.2139327921268,173) translate(125.55 14.6)"/><use xlink:href="#b" transform="matrix(1,0,0,1,1113.2139327921268,210.6) translate(0 25.6)"/><use xlink:href="#d" transform="matrix(1,0,0,1,1113.2139327921268,210.6) translate(15 25.6)"/><use xlink:href="#e" transform="matrix(1,0,0,1,1113.2139327921268,269.7) translate(0 25.299999999999997)"/><use xlink:href="#z" transform="matrix(1,0,0,1,1113.2139327921268,269.7) translate(15.5 25.299999999999997)"/><use xlink:href="#A" transform="matrix(1,0,0,1,1113.2139327921268,269.7) translate(0 46.9)"/><use xlink:href="#B" transform="matrix(1,0,0,1,1113.2139327921268,269.7) translate(15 46.9)"/><path d="M841.2 497h440v221h-440z" stroke="#333" stroke-width="2" fill="#fff"/><path d="M841.2 534.6h440m-440 59.1h440" stroke="#333" stroke-width="2" fill="none"/><use xlink:href="#C" transform="matrix(1,0,0,1,849.2139327921266,505) translate(98.65 14.6)"/><use xlink:href="#e" transform="matrix(1,0,0,1,853.2139327921266,601.7) translate(0 25.19999999999999)"/><use xlink:href="#D" transform="matrix(1,0,0,1,853.2139327921266,601.7) translate(15.5 25.19999999999999)"/><use xlink:href="#E" transform="matrix(1,0,0,1,853.2139327921266,601.7) translate(0 46.79999999999999)"/><use xlink:href="#F" transform="matrix(1,0,0,1,853.2139327921266,601.7) translate(10.95 46.79999999999999)"/><use xlink:href="#E" transform="matrix(1,0,0,1,853.2139327921266,601.7) translate(0 68.39999999999999)"/><use xlink:href="#G" transform="matrix(1,0,0,1,853.2139327921266,601.7) translate(10.95 68.39999999999999)"/><use xlink:href="#H" transform="matrix(1,0,0,1,853.2139327921266,601.7) translate(159.75 68.39999999999999)"/><use xlink:href="#E" transform="matrix(1,0,0,1,853.2139327921266,601.7) translate(0 90)"/><use xlink:href="#I" transform="matrix(1,0,0,1,853.2139327921266,601.7) translate(10.95 90)"/><use xlink:href="#J" transform="matrix(1,0,0,1,853.2139327921266,601.7) translate(239.49999999999994 90)"/><use xlink:href="#K" transform="matrix(1,0,0,1,853.2139327921266,601.7) translate(323.4 90)"/><use xlink:href="#L" transform="matrix(1,0,0,1,853.2139327921266,601.7) translate(369.29999999999995 90)"/><path d="M1321.2 497h440v221h-440z" stroke="#333" stroke-width="2" fill="#fff"/><path d="M1321.2 534.6h440m-440 59.1h440" stroke="#333" stroke-width="2" fill="none"/><g><use xlink:href="#M" transform="matrix(1,0,0,1,1329.2139327921268,505) translate(110.60000000000001 14.6)"/></g><g><use xlink:href="#e" transform="matrix(1,0,0,1,1333.2139327921268,601.7) translate(0 25.19999999999999)"/><use xlink:href="#D" transform="matrix(1,0,0,1,1333.2139327921268,601.7) translate(15.5 25.19999999999999)"/><use xlink:href="#E" transform="matrix(1,0,0,1,1333.2139327921268,601.7) translate(0 46.79999999999999)"/><use xlink:href="#F" transform="matrix(1,0,0,1,1333.2139327921268,601.7) translate(10.95 46.79999999999999)"/><use xlink:href="#E" transform="matrix(1,0,0,1,1333.2139327921268,601.7) translate(0 68.39999999999999)"/><use xlink:href="#G" transform="matrix(1,0,0,1,1333.2139327921268,601.7) translate(10.95 68.39999999999999)"/><use xlink:href="#H" transform="matrix(1,0,0,1,1333.2139327921268,601.7) translate(159.75 68.39999999999999)"/><use xlink:href="#E" transform="matrix(1,0,0,1,1333.2139327921268,601.7) translate(0 90)"/><use xlink:href="#I" transform="matrix(1,0,0,1,1333.2139327921268,601.7) translate(10.95 90)"/><use xlink:href="#J" transform="matrix(1,0,0,1,1333.2139327921268,601.7) translate(239.49999999999994 90)"/><use xlink:href="#K" transform="matrix(1,0,0,1,1333.2139327921268,601.7) translate(323.4 90)"/><use xlink:href="#L" transform="matrix(1,0,0,1,1333.2139327921268,601.7) translate(369.29999999999995 90)"/></g><path d="M1529.25 419l3.2.42 3 1.24 2.6 2 2 2.6 1.24 3 .4 3.2v64.04h-1v-63.97l-.38-3-1.14-2.77-1.84-2.4-2.4-1.82-2.74-1.14-3.02-.4h-94v-1zm-227.14-8.52l1.15 2.76 1.84 2.4 2.37 1.82 2.76 1.14 3.02.4h94v1h-94.07l-3.2-.42-3-1.24-2.6-2-2-2.6-1.25-3-.42-3.2v-48.16h1v48.1z" fill="#333"/><path d="M1541.7 496h-1v-.5h1z" fill="#333"/><path d="M1305.85 358.88h-9.27l4.63-14.26z" fill="#fff"/><path d="M1306.54 359.38h-10.65l5.3-16.38zm-9.27-1h7.9l-3.96-12.14z" fill="#333"/><g><use xlink:href="#v" transform="matrix(1,0,0,1,1407.238932792127,408.7) translate(0 14.4)"/><use xlink:href="#w" transform="matrix(1,0,0,1,1407.238932792127,408.7) translate(17.95 14.4)"/></g><path d="M1167.24 420h-94l-3 .4-2.76 1.14-2.4 1.83-1.83 2.4-1.14 2.75-.4 3v63.98h-1v-64.03l.43-3.2 1.25-3 2-2.6 2.6-2 3-1.25 3.2-.42h94.06zm134.47-12.47l-.4 3.2-1.25 3-2 2.6-2.6 2-3 1.25-3.2.42h-94.06v-1h93.98l3.02-.4 2.75-1.14 2.4-1.83 1.83-2.4 1.14-2.75.4-3v-48.1h1zM1061.7 496h-1v-.5h1z" fill="#333"/><path d="M1305.85 358.88h-9.27l4.63-14.26z" fill="#fff"/><path d="M1306.54 359.38h-10.65l5.3-16.38zm-9.27-1h7.9l-3.96-12.14z" fill="#333"/><g><use xlink:href="#v" transform="matrix(1,0,0,1,1167.238932792127,408.7) translate(0 14.4)"/><use xlink:href="#w" transform="matrix(1,0,0,1,1167.238932792127,408.7) translate(17.95 14.4)"/></g><path d="M857.13 254H661.9v-1h195.23zm242.58 0H904.1v-1h195.63z" fill="#333"/><path d="M1100.2 254h-.5v-1h.5zM679.45 243.75l-16.5 9.75 16.5 9.75-.5.86L661 253.5l17.94-10.6z" fill="#333"/><g><use xlink:href="#N" transform="matrix(1,0,0,1,857.1319663960634,242.7) translate(0 14.4)"/><use xlink:href="#w" transform="matrix(1,0,0,1,857.1319663960634,242.7) translate(36.95 14.4)"/></g><path d="M782.24 800h360v120h-360z" stroke="#333" stroke-width="2" fill="#fff"/><path d="M782.24 859.2h360" stroke="#333" stroke-width="2" fill="none"/><g><use xlink:href="#O" transform="matrix(1,0,0,1,790.2423763651273,808) translate(113.57499999999999 14.799999999999999)"/><use xlink:href="#P" transform="matrix(1,0,0,1,790.2423763651273,808) translate(108.625 36.4)"/></g><g><use xlink:href="#e" transform="matrix(1,0,0,1,794.2423763651273,867.2) translate(0 26.1)"/><use xlink:href="#Q" transform="matrix(1,0,0,1,794.2423763651273,867.2) translate(15.5 26.1)"/><use xlink:href="#R" transform="matrix(1,0,0,1,794.2423763651273,867.2) translate(227.10000000000002 26.1)"/><use xlink:href="#S" transform="matrix(1,0,0,1,794.2423763651273,867.2) translate(280.95000000000005 26.1)"/></g><path d="M560 1020h360v156H560z" stroke="#333" stroke-width="2" fill="#fff"/><path d="M560 1057.6h360m-360 59.1h360" stroke="#333" stroke-width="2" fill="none"/><g><use xlink:href="#T" transform="matrix(1,0,0,1,568,1028) translate(93.7 14.6)"/></g><g><use xlink:href="#e" transform="matrix(1,0,0,1,572,1124.6999999999998) translate(0 25.6)"/><use xlink:href="#Q" transform="matrix(1,0,0,1,572,1124.6999999999998) translate(15.5 25.6)"/><use xlink:href="#R" transform="matrix(1,0,0,1,572,1124.6999999999998) translate(227.10000000000002 25.6)"/><use xlink:href="#S" transform="matrix(1,0,0,1,572,1124.6999999999998) translate(280.95000000000005 25.6)"/></g><path d="M1000 1020h360v156h-360z" stroke="#333" stroke-width="2" fill="#fff"/><path d="M1000 1057.6h360m-360 59.1h360" stroke="#333" stroke-width="2" fill="none"/><g><use xlink:href="#U" transform="matrix(1,0,0,1,1008,1028) translate(79.17500000000001 14.6)"/></g><g><use xlink:href="#e" transform="matrix(1,0,0,1,1012,1124.6999999999998) translate(0 25.6)"/><use xlink:href="#Q" transform="matrix(1,0,0,1,1012,1124.6999999999998) translate(15.5 25.6)"/><use xlink:href="#R" transform="matrix(1,0,0,1,1012,1124.6999999999998) translate(227.10000000000002 25.6)"/><use xlink:href="#S" transform="matrix(1,0,0,1,1012,1124.6999999999998) translate(280.95000000000005 25.6)"/></g><path d="M837.15 970.5h-85.12l-3 .4-2.77 1.14-2.4 1.83-1.82 2.4-1.14 2.75-.4 3v36.48h-1v-36.53l.42-3.2 1.24-3 2-2.6 2.6-2 3-1.25 3.2-.42h85.2zm125.6-12.47l-.43 3.2-1.24 3-2 2.6-2.6 2-3 1.25-3.2.42H865.1v-1h85.1l3.03-.4 2.75-1.14 2.4-1.83 1.83-2.4 1.15-2.75.4-3v-20.6h1zM740.5 1019h-1v-.5h1z" fill="#333"/><path d="M966.88 936.88h-9.27l4.64-14.26z" fill="#fff"/><path d="M967.57 937.38h-10.65l5.32-16.38zm-9.27-1h7.9l-3.96-12.14z" fill="#333"/><g><use xlink:href="#v" transform="matrix(1,0,0,1,837.1461881825636,959.2) translate(0 14.4)"/><use xlink:href="#w" transform="matrix(1,0,0,1,837.1461881825636,959.2) translate(17.95 14.4)"/></g><path d="M1168.03 969.5l3.2.42 3 1.24 2.6 2 2 2.6 1.25 3 .42 3.2v36.54h-1v-36.47l-.4-3-1.14-2.77-1.83-2.4-2.4-1.82-2.75-1.14-3-.4h-82.88v-1zm-204.9-8.52l1.15 2.76 1.83 2.4 2.4 1.82 2.76 1.14 3 .4h82.9v1H974.2l-3.2-.42-3-1.24-2.6-2-2-2.6-1.24-3-.42-3.2v-20.66h1v20.6zM1180.5 1019h-1v-.5h1z" fill="#333"/><path d="M966.88 936.88h-9.27l4.64-14.26z" fill="#fff"/><path d="M967.57 937.38h-10.65l5.32-16.38zm-9.27-1h7.9l-3.96-12.14z" fill="#333"/><g><use xlink:href="#v" transform="matrix(1,0,0,1,1057.1461881825637,959.2) translate(0 14.4)"/><use xlink:href="#w" transform="matrix(1,0,0,1,1057.1461881825637,959.2) translate(17.95 14.4)"/></g><defs><path fill="#333" d="M185-189c-5-48-123-54-124 2 14 75 158 14 163 119 3 78-121 87-175 55-17-10-28-26-33-46l33-7c5 56 141 63 141-1 0-78-155-14-162-118-5-82 145-84 179-34 5 7 8 16 11 25" id="V"/><path fill="#333" d="M106-169C34-169 62-67 57 0H25v-261h32l-1 103c12-21 28-36 61-36 89 0 53 116 60 194h-32v-121c2-32-8-49-39-48" id="W"/><path fill="#333" d="M141-36C126-15 110 5 73 4 37 3 15-17 15-53c-1-64 63-63 125-63 3-35-9-54-41-54-24 1-41 7-42 31l-33-3c5-37 33-52 76-52 45 0 72 20 72 64v82c-1 20 7 32 28 27v20c-31 9-61-2-59-35zM48-53c0 20 12 33 32 33 41-3 63-29 60-74-43 2-92-5-92 41" id="X"/><path fill="#333" d="M115-194c55 1 70 41 70 98S169 2 115 4C84 4 66-9 55-30l1 105H24l-1-265h31l2 30c10-21 28-34 59-34zm-8 174c40 0 45-34 45-75s-6-73-45-74c-42 0-51 32-51 76 0 43 10 73 51 73" id="Y"/><path fill="#333" d="M100-194c63 0 86 42 84 106H49c0 40 14 67 53 68 26 1 43-12 49-29l28 8c-11 28-37 45-77 45C44 4 14-33 15-96c1-61 26-98 85-98zm52 81c6-60-76-77-97-28-3 7-6 17-6 28h103" id="Z"/><g id="a"><use transform="matrix(0.05,0,0,0.05,0,0)" xlink:href="#V"/><use transform="matrix(0.05,0,0,0.05,12,0)" xlink:href="#W"/><use transform="matrix(0.05,0,0,0.05,22,0)" xlink:href="#X"/><use transform="matrix(0.05,0,0,0.05,32,0)" xlink:href="#Y"/><use transform="matrix(0.05,0,0,0.05,42,0)" xlink:href="#Z"/></g><path fill="#333" d="M158-156l-14 65h45v19h-49L124 0h-19l15-72H56L41 0H22l15-72H2v-19h39l14-65H11v-19h48l15-71h20l-16 71h64l16-71h19l-16 71h37v19h-40zm-83 0L61-91h63l14-65H75" id="aa"/><use transform="matrix(0.05,0,0,0.05,0,0)" xlink:href="#aa" id="b"/><path fill="#333" d="M24-231v-30h32v30H24zM24 0v-190h32V0H24" id="ab"/><path fill="#333" d="M177-190C167-65 218 103 67 71c-23-6-38-20-44-43l32-5c15 47 100 32 89-28v-30C133-14 115 1 83 1 29 1 15-40 15-95c0-56 16-97 71-98 29-1 48 16 59 35 1-10 0-23 2-32h30zM94-22c36 0 50-32 50-73 0-42-14-75-50-75-39 0-46 34-46 75s6 73 46 73" id="ac"/><path fill="#333" d="M59-47c-2 24 18 29 38 22v24C64 9 27 4 27-40v-127H5v-23h24l9-43h21v43h35v23H59v120" id="ad"/><path fill="#333" d="M33-154v-36h34v36H33zM33 0v-36h34V0H33" id="ae"/><path fill="#333" d="M117-194c89-4 53 116 60 194h-32v-121c0-31-8-49-39-48C34-167 62-67 57 0H25l-1-190h30c1 10-1 24 2 32 11-22 29-35 61-36" id="af"/><g id="c"><use transform="matrix(0.05,0,0,0.05,0,0)" xlink:href="#W"/><use transform="matrix(0.05,0,0,0.05,10,0)" xlink:href="#Z"/><use transform="matrix(0.05,0,0,0.05,20,0)" xlink:href="#ab"/><use transform="matrix(0.05,0,0,0.05,23.95,0)" xlink:href="#ac"/><use transform="matrix(0.05,0,0,0.05,33.95,0)" xlink:href="#W"/><use transform="matrix(0.05,0,0,0.05,43.95,0)" xlink:href="#ad"/><use transform="matrix(0.05,0,0,0.05,48.95,0)" xlink:href="#ae"/><use transform="matrix(0.05,0,0,0.05,53.95,0)" xlink:href="#ab"/><use transform="matrix(0.05,0,0,0.05,57.900000000000006,0)" xlink:href="#af"/><use transform="matrix(0.05,0,0,0.05,67.9,0)" xlink:href="#ad"/></g><path fill="#333" d="M114-163C36-179 61-72 57 0H25l-1-190h30c1 12-1 29 2 39 6-27 23-49 58-41v29" id="ag"/><path fill="#333" d="M100-194c62-1 85 37 85 99 1 63-27 99-86 99S16-35 15-95c0-66 28-99 85-99zM99-20c44 1 53-31 53-75 0-43-8-75-51-75s-53 32-53 75 10 74 51 75" id="ah"/><path fill="#333" d="M206 0h-36l-40-164L89 0H53L-1-190h32L70-26l43-164h34l41 164 42-164h31" id="ai"/><path fill="#333" d="M135-143c-3-34-86-38-87 0 15 53 115 12 119 90S17 21 10-45l28-5c4 36 97 45 98 0-10-56-113-15-118-90-4-57 82-63 122-42 12 7 21 19 24 35" id="aj"/><path fill="#333" d="M212-179c-10-28-35-45-73-45-59 0-87 40-87 99 0 60 29 101 89 101 43 0 62-24 78-52l27 14C228-24 195 4 139 4 59 4 22-46 18-125c-6-104 99-153 187-111 19 9 31 26 39 46" id="ak"/><path fill="#333" d="M24 0v-261h32V0H24" id="al"/><path fill="#333" d="M96-169c-40 0-48 33-48 73s9 75 48 75c24 0 41-14 43-38l32 2c-6 37-31 61-74 61-59 0-76-41-82-99-10-93 101-131 147-64 4 7 5 14 7 22l-32 3c-4-21-16-35-41-35" id="am"/><path fill="#333" d="M33 0v-248h34V0H33" id="an"/><path fill="#333" d="M101-234c-31-9-42 10-38 44h38v23H63V0H32v-167H5v-23h27c-7-52 17-82 69-68v24" id="ao"/><g id="d"><use transform="matrix(0.05,0,0,0.05,0,0)" xlink:href="#ag"/><use transform="matrix(0.05,0,0,0.05,5.95,0)" xlink:href="#ah"/><use transform="matrix(0.05,0,0,0.05,15.949999999999998,0)" xlink:href="#ai"/><use transform="matrix(0.05,0,0,0.05,28.899999999999995,0)" xlink:href="#aj"/><use transform="matrix(0.05,0,0,0.05,37.9,0)" xlink:href="#ae"/><use transform="matrix(0.05,0,0,0.05,42.9,0)" xlink:href="#ak"/><use transform="matrix(0.05,0,0,0.05,55.85,0)" xlink:href="#ah"/><use transform="matrix(0.05,0,0,0.05,65.85,0)" xlink:href="#al"/><use transform="matrix(0.05,0,0,0.05,69.8,0)" xlink:href="#al"/><use transform="matrix(0.05,0,0,0.05,73.75,0)" xlink:href="#Z"/><use transform="matrix(0.05,0,0,0.05,83.75,0)" xlink:href="#am"/><use transform="matrix(0.05,0,0,0.05,92.75,0)" xlink:href="#ad"/><use transform="matrix(0.05,0,0,0.05,97.75,0)" xlink:href="#ab"/><use transform="matrix(0.05,0,0,0.05,101.7,0)" xlink:href="#ah"/><use transform="matrix(0.05,0,0,0.05,111.7,0)" xlink:href="#af"/><use transform="matrix(0.05,0,0,0.05,121.7,0)" xlink:href="#an"/><use transform="matrix(0.05,0,0,0.05,126.7,0)" xlink:href="#af"/><use transform="matrix(0.05,0,0,0.05,136.7,0)" xlink:href="#ad"/><use transform="matrix(0.05,0,0,0.05,141.7,0)" xlink:href="#Z"/><use transform="matrix(0.05,0,0,0.05,151.7,0)" xlink:href="#ag"/><use transform="matrix(0.05,0,0,0.05,157.64999999999998,0)" xlink:href="#ao"/><use transform="matrix(0.05,0,0,0.05,162.64999999999998,0)" xlink:href="#X"/><use transform="matrix(0.05,0,0,0.05,172.64999999999998,0)" xlink:href="#am"/><use transform="matrix(0.05,0,0,0.05,181.64999999999998,0)" xlink:href="#Z"/></g><path fill="#333" d="M118-107v75H92v-75H18v-26h74v-75h26v75h74v26h-74" id="ap"/><use transform="matrix(0.05,0,0,0.05,0,0)" xlink:href="#ap" id="e"/><path fill="#333" d="M197 0v-115H63V0H30v-248h33v105h134v-105h34V0h-34" id="aq"/><path fill="#333" d="M87 75C49 33 22-17 22-94c0-76 28-126 65-167h31c-38 41-64 92-64 168S80 34 118 75H87" id="ar"/><g id="f"><use transform="matrix(0.05,0,0,0.05,0,0)" xlink:href="#aj"/><use transform="matrix(0.05,0,0,0.05,9,0)" xlink:href="#Z"/><use transform="matrix(0.05,0,0,0.05,19,0)" xlink:href="#ad"/><use transform="matrix(0.05,0,0,0.05,24,0)" xlink:href="#aq"/><use transform="matrix(0.05,0,0,0.05,36.95,0)" xlink:href="#Z"/><use transform="matrix(0.05,0,0,0.05,46.95,0)" xlink:href="#ab"/><use transform="matrix(0.05,0,0,0.05,50.900000000000006,0)" xlink:href="#ac"/><use transform="matrix(0.05,0,0,0.05,60.900000000000006,0)" xlink:href="#W"/><use transform="matrix(0.05,0,0,0.05,70.9,0)" xlink:href="#ad"/><use transform="matrix(0.05,0,0,0.05,75.9,0)" xlink:href="#ar"/><use transform="matrix(0.05,0,0,0.05,81.85000000000001,0)" xlink:href="#ab"/><use transform="matrix(0.05,0,0,0.05,85.80000000000001,0)" xlink:href="#af"/><use transform="matrix(0.05,0,0,0.05,95.80000000000001,0)" xlink:href="#ad"/></g><path fill="#333" d="M33-261c38 41 65 92 65 168S71 34 33 75H2C39 34 66-17 66-93S39-220 2-261h31" id="as"/><g id="g"><use transform="matrix(0.05,0,0,0.05,0,0)" xlink:href="#W"/><use transform="matrix(0.05,0,0,0.05,10,0)" xlink:href="#Z"/><use transform="matrix(0.05,0,0,0.05,20,0)" xlink:href="#ab"/><use transform="matrix(0.05,0,0,0.05,23.95,0)" xlink:href="#ac"/><use transform="matrix(0.05,0,0,0.05,33.95,0)" xlink:href="#W"/><use transform="matrix(0.05,0,0,0.05,43.95,0)" xlink:href="#ad"/><use transform="matrix(0.05,0,0,0.05,48.95,0)" xlink:href="#as"/><use transform="matrix(0.05,0,0,0.05,54.900000000000006,0)" xlink:href="#ae"/></g><g id="h"><use transform="matrix(0.05,0,0,0.05,0,0)" xlink:href="#V"/><use transform="matrix(0.05,0,0,0.05,12,0)" xlink:href="#W"/><use transform="matrix(0.05,0,0,0.05,22,0)" xlink:href="#X"/><use transform="matrix(0.05,0,0,0.05,32,0)" xlink:href="#Y"/><use transform="matrix(0.05,0,0,0.05,42,0)" xlink:href="#Z"/></g><g id="i"><use transform="matrix(0.05,0,0,0.05,0,0)" xlink:href="#ac"/><use transform="matrix(0.05,0,0,0.05,10,0)" xlink:href="#Z"/><use transform="matrix(0.05,0,0,0.05,20,0)" xlink:href="#ad"/><use transform="matrix(0.05,0,0,0.05,25,0)" xlink:href="#aq"/><use transform="matrix(0.05,0,0,0.05,37.95,0)" xlink:href="#Z"/><use transform="matrix(0.05,0,0,0.05,47.95,0)" xlink:href="#ab"/><use transform="matrix(0.05,0,0,0.05,51.900000000000006,0)" xlink:href="#ac"/><use transform="matrix(0.05,0,0,0.05,61.900000000000006,0)" xlink:href="#W"/><use transform="matrix(0.05,0,0,0.05,71.9,0)" xlink:href="#ad"/><use transform="matrix(0.05,0,0,0.05,76.9,0)" xlink:href="#ar"/><use transform="matrix(0.05,0,0,0.05,82.85000000000001,0)" xlink:href="#as"/><use transform="matrix(0.05,0,0,0.05,88.80000000000001,0)" xlink:href="#ae"/></g><g id="j"><use transform="matrix(0.05,0,0,0.05,0,0)" xlink:href="#ab"/><use transform="matrix(0.05,0,0,0.05,3.95,0)" xlink:href="#af"/><use transform="matrix(0.05,0,0,0.05,13.949999999999998,0)" xlink:href="#ad"/></g><use transform="matrix(0.05,0,0,0.05,0,0)" xlink:href="#ap" id="k"/><path fill="#333" d="M45-171c29-32 103-29 114 14 2-11 5-23 8-33h47L176-2c-3 70-92 96-155 64C9 56 1 42-1 25l50-5c2 28 48 27 63 11 13-13 20-45 21-66-13 20-30 35-62 36-87 3-60-134-26-172zM94-35c41-3 55-43 55-86 0-24-12-39-35-39-43 0-51 48-51 90 0 22 9 37 31 35" id="at"/><path fill="#333" d="M114-194c63-2 87 48 72 110H63c-3 28 1 55 31 54 21-1 32-13 37-29l44 13C160-14 137 4 91 4 41 4 11-22 11-73c0-71 33-119 103-121zm30 77c14-47-50-61-67-22-3 6-6 13-8 22h75" id="au"/><path fill="#333" d="M72-63c-8 23 5 39 32 30L98-1C54 14 12-6 23-64l18-93H15l7-33h28l24-45h31l-8 45h35l-6 33H90" id="av"/><path fill="#333" d="M258-177c0 46-32 67-71 75L235 0h-57l-41-94H76L58 0H6l48-248c89 2 204-19 204 71zm-53 3c0-46-63-30-107-33l-14 73c51-2 120 13 121-40" id="aw"/><path fill="#333" d="M124-194c51 0 84 22 84 74C207-44 167 4 94 4 43 4 11-23 11-74c0-74 41-120 113-120zM99-30c46 0 58-42 58-86 0-27-11-44-37-44-44 0-55 40-57 84-1 27 10 45 36 46" id="ax"/><path fill="#333" d="M212 0h-52l-8-156L82 0H30L17-190h46l2 145 66-145h53l8 145 60-145h47" id="ay"/><path fill="#333" d="M144-137c-1-29-70-35-71-2 16 41 103 10 103 80C176 9 79 16 32-9 18-17 9-31 4-48l44-6c3 32 80 36 82 1-15-42-103-11-103-82 0-77 157-79 161-8" id="az"/><path fill="#333" d="M13-52c0-97 37-163 91-209h50c-53 52-92 115-92 212 0 48 8 90 25 124H39C22 40 13-2 13-52" id="aA"/><path fill="#333" d="M109-139C109-39 71 27 18 75h-50C22 21 61-44 61-142c0-46-11-87-27-119h47c17 31 28 75 28 122" id="aB"/><g id="l"><use transform="matrix(0.05,0,0,0.05,0,0)" xlink:href="#at"/><use transform="matrix(0.05,0,0,0.05,10.950000000000001,0)" xlink:href="#au"/><use transform="matrix(0.05,0,0,0.05,20.950000000000003,0)" xlink:href="#av"/><use transform="matrix(0.05,0,0,0.05,26.900000000000002,0)" xlink:href="#aw"/><use transform="matrix(0.05,0,0,0.05,39.85,0)" xlink:href="#ax"/><use transform="matrix(0.05,0,0,0.05,50.800000000000004,0)" xlink:href="#ay"/><use transform="matrix(0.05,0,0,0.05,64.80000000000001,0)" xlink:href="#az"/><use transform="matrix(0.05,0,0,0.05,74.80000000000001,0)" xlink:href="#aA"/><use transform="matrix(0.05,0,0,0.05,80.75000000000001,0)" xlink:href="#aB"/><use transform="matrix(0.05,0,0,0.05,86.70000000000002,0)" xlink:href="#ae"/><use transform="matrix(0.05,0,0,0.05,91.70000000000002,0)" xlink:href="#ak"/><use transform="matrix(0.05,0,0,0.05,104.65000000000003,0)" xlink:href="#ah"/><use transform="matrix(0.05,0,0,0.05,114.65000000000003,0)" xlink:href="#al"/><use transform="matrix(0.05,0,0,0.05,118.60000000000002,0)" xlink:href="#al"/><use transform="matrix(0.05,0,0,0.05,122.55000000000003,0)" xlink:href="#Z"/><use transform="matrix(0.05,0,0,0.05,132.55,0)" xlink:href="#am"/><use transform="matrix(0.05,0,0,0.05,141.55,0)" xlink:href="#ad"/><use transform="matrix(0.05,0,0,0.05,146.55,0)" xlink:href="#ab"/><use transform="matrix(0.05,0,0,0.05,150.5,0)" xlink:href="#ah"/><use transform="matrix(0.05,0,0,0.05,160.5,0)" xlink:href="#af"/><use transform="matrix(0.05,0,0,0.05,170.5,0)" xlink:href="#an"/><use transform="matrix(0.05,0,0,0.05,175.5,0)" xlink:href="#af"/><use transform="matrix(0.05,0,0,0.05,185.5,0)" xlink:href="#ad"/><use transform="matrix(0.05,0,0,0.05,190.5,0)" xlink:href="#Z"/><use transform="matrix(0.05,0,0,0.05,200.5,0)" xlink:href="#ag"/><use transform="matrix(0.05,0,0,0.05,206.44999999999996,0)" xlink:href="#ao"/><use transform="matrix(0.05,0,0,0.05,211.44999999999996,0)" xlink:href="#X"/><use transform="matrix(0.05,0,0,0.05,221.44999999999996,0)" xlink:href="#am"/><use transform="matrix(0.05,0,0,0.05,230.44999999999996,0)" xlink:href="#Z"/></g><path fill="#333" d="M240 0l2-218c-23 76-54 145-80 218h-23L58-218 59 0H30v-248h44l77 211c21-75 51-140 76-211h43V0h-30" id="aC"/><path fill="#333" d="M85-194c31 0 48 13 60 33l-1-100h32l1 261h-30c-2-10 0-23-3-31C134-8 116 4 85 4 32 4 16-35 15-94c0-66 23-100 70-100zm9 24c-40 0-46 34-46 75 0 40 6 74 45 74 42 0 51-32 51-76 0-42-9-74-50-73" id="aD"/><path fill="#333" d="M141 0L90-78 38 0H4l68-98-65-92h35l48 74 47-74h35l-64 92 68 98h-35" id="aE"/><g id="m"><use transform="matrix(0.05,0,0,0.05,0,0)" xlink:href="#ac"/><use transform="matrix(0.05,0,0,0.05,10,0)" xlink:href="#Z"/><use transform="matrix(0.05,0,0,0.05,20,0)" xlink:href="#ad"/><use transform="matrix(0.05,0,0,0.05,25,0)" xlink:href="#aC"/><use transform="matrix(0.05,0,0,0.05,39.95,0)" xlink:href="#ab"/><use transform="matrix(0.05,0,0,0.05,43.900000000000006,0)" xlink:href="#aD"/><use transform="matrix(0.05,0,0,0.05,53.900000000000006,0)" xlink:href="#aD"/><use transform="matrix(0.05,0,0,0.05,63.900000000000006,0)" xlink:href="#al"/><use transform="matrix(0.05,0,0,0.05,67.85000000000001,0)" xlink:href="#Z"/><use transform="matrix(0.05,0,0,0.05,77.85000000000001,0)" xlink:href="#an"/><use transform="matrix(0.05,0,0,0.05,82.85000000000001,0)" xlink:href="#af"/><use transform="matrix(0.05,0,0,0.05,92.85000000000001,0)" xlink:href="#aD"/><use transform="matrix(0.05,0,0,0.05,102.85000000000001,0)" xlink:href="#Z"/><use transform="matrix(0.05,0,0,0.05,112.85000000000001,0)" xlink:href="#aE"/><use transform="matrix(0.05,0,0,0.05,121.85000000000001,0)" xlink:href="#ar"/><use transform="matrix(0.05,0,0,0.05,127.80000000000001,0)" xlink:href="#as"/><use transform="matrix(0.05,0,0,0.05,133.75,0)" xlink:href="#ae"/></g><path fill="#333" d="M63-220v92h138v28H63V0H30v-248h175v28H63" id="aF"/><path fill="#333" d="M233-177c-1 41-23 64-60 70L243 0h-38l-65-103H63V0H30v-248c88 3 205-21 203 71zM63-129c60-2 137 13 137-47 0-61-80-42-137-45v92" id="aG"/><g id="n"><use transform="matrix(0.05,0,0,0.05,0,0)" xlink:href="#ab"/><use transform="matrix(0.05,0,0,0.05,3.95,0)" xlink:href="#aj"/><use transform="matrix(0.05,0,0,0.05,12.949999999999998,0)" xlink:href="#aF"/><use transform="matrix(0.05,0,0,0.05,23.9,0)" xlink:href="#ab"/><use transform="matrix(0.05,0,0,0.05,27.849999999999994,0)" xlink:href="#ag"/><use transform="matrix(0.05,0,0,0.05,33.8,0)" xlink:href="#aj"/><use transform="matrix(0.05,0,0,0.05,42.8,0)" xlink:href="#ad"/><use transform="matrix(0.05,0,0,0.05,47.8,0)" xlink:href="#aG"/><use transform="matrix(0.05,0,0,0.05,60.75,0)" xlink:href="#ah"/><use transform="matrix(0.05,0,0,0.05,70.75,0)" xlink:href="#ai"/><use transform="matrix(0.05,0,0,0.05,83.7,0)" xlink:href="#ar"/><use transform="matrix(0.05,0,0,0.05,89.65,0)" xlink:href="#ab"/><use transform="matrix(0.05,0,0,0.05,93.60000000000001,0)" xlink:href="#af"/><use transform="matrix(0.05,0,0,0.05,103.60000000000001,0)" xlink:href="#ad"/></g><g id="o"><use transform="matrix(0.05,0,0,0.05,0,0)" xlink:href="#ag"/><use transform="matrix(0.05,0,0,0.05,5.95,0)" xlink:href="#ah"/><use transform="matrix(0.05,0,0,0.05,15.949999999999998,0)" xlink:href="#ai"/><use transform="matrix(0.05,0,0,0.05,28.899999999999995,0)" xlink:href="#an"/><use transform="matrix(0.05,0,0,0.05,33.9,0)" xlink:href="#af"/><use transform="matrix(0.05,0,0,0.05,43.9,0)" xlink:href="#aD"/><use transform="matrix(0.05,0,0,0.05,53.900000000000006,0)" xlink:href="#Z"/><use transform="matrix(0.05,0,0,0.05,63.900000000000006,0)" xlink:href="#aE"/><use transform="matrix(0.05,0,0,0.05,72.9,0)" xlink:href="#as"/><use transform="matrix(0.05,0,0,0.05,78.85000000000001,0)" xlink:href="#ae"/></g><path fill="#333" d="M115-194c53 0 69 39 70 98 0 66-23 100-70 100C84 3 66-7 56-30L54 0H23l1-261h32v101c10-23 28-34 59-34zm-8 174c40 0 45-34 45-75 0-40-5-75-45-74-42 0-51 32-51 76 0 43 10 73 51 73" id="aH"/><g id="p"><use transform="matrix(0.05,0,0,0.05,0,0)" xlink:href="#aH"/><use transform="matrix(0.05,0,0,0.05,10,0)" xlink:href="#ah"/><use transform="matrix(0.05,0,0,0.05,20,0)" xlink:href="#ah"/><use transform="matrix(0.05,0,0,0.05,30,0)" xlink:href="#al"/></g><g id="q"><use transform="matrix(0.05,0,0,0.05,0,0)" xlink:href="#ab"/><use transform="matrix(0.05,0,0,0.05,3.95,0)" xlink:href="#aj"/><use transform="matrix(0.05,0,0,0.05,12.949999999999998,0)" xlink:href="#aC"/><use transform="matrix(0.05,0,0,0.05,27.899999999999995,0)" xlink:href="#ab"/><use transform="matrix(0.05,0,0,0.05,31.849999999999994,0)" xlink:href="#aD"/><use transform="matrix(0.05,0,0,0.05,41.849999999999994,0)" xlink:href="#aD"/><use transform="matrix(0.05,0,0,0.05,51.849999999999994,0)" xlink:href="#al"/><use transform="matrix(0.05,0,0,0.05,55.79999999999999,0)" xlink:href="#Z"/><use transform="matrix(0.05,0,0,0.05,65.8,0)" xlink:href="#aG"/><use transform="matrix(0.05,0,0,0.05,78.75,0)" xlink:href="#ah"/><use transform="matrix(0.05,0,0,0.05,88.75,0)" xlink:href="#ai"/><use transform="matrix(0.05,0,0,0.05,101.7,0)" xlink:href="#ar"/><use transform="matrix(0.05,0,0,0.05,107.65,0)" xlink:href="#ab"/><use transform="matrix(0.05,0,0,0.05,111.60000000000001,0)" xlink:href="#af"/><use transform="matrix(0.05,0,0,0.05,121.60000000000001,0)" xlink:href="#ad"/></g><path fill="#333" d="M30 0v-248h33v221h125V0H30" id="aI"/><g id="r"><use transform="matrix(0.05,0,0,0.05,0,0)" xlink:href="#ab"/><use transform="matrix(0.05,0,0,0.05,3.95,0)" xlink:href="#aj"/><use transform="matrix(0.05,0,0,0.05,12.949999999999998,0)" xlink:href="#aI"/><use transform="matrix(0.05,0,0,0.05,22.95,0)" xlink:href="#X"/><use transform="matrix(0.05,0,0,0.05,32.95,0)" xlink:href="#aj"/><use transform="matrix(0.05,0,0,0.05,41.95,0)" xlink:href="#ad"/><use transform="matrix(0.05,0,0,0.05,46.95,0)" xlink:href="#aG"/><use transform="matrix(0.05,0,0,0.05,59.900000000000006,0)" xlink:href="#ah"/><use transform="matrix(0.05,0,0,0.05,69.9,0)" xlink:href="#ai"/><use transform="matrix(0.05,0,0,0.05,82.85000000000001,0)" xlink:href="#ar"/><use transform="matrix(0.05,0,0,0.05,88.80000000000001,0)" xlink:href="#ab"/><use transform="matrix(0.05,0,0,0.05,92.75000000000001,0)" xlink:href="#af"/><use transform="matrix(0.05,0,0,0.05,102.75,0)" xlink:href="#ad"/></g><g id="s"><use transform="matrix(0.05,0,0,0.05,0,0)" xlink:href="#aH"/><use transform="matrix(0.05,0,0,0.05,10,0)" xlink:href="#ah"/><use transform="matrix(0.05,0,0,0.05,20,0)" xlink:href="#ah"/><use transform="matrix(0.05,0,0,0.05,30,0)" xlink:href="#al"/></g><g id="t"><use transform="matrix(0.05,0,0,0.05,0,0)" xlink:href="#V"/><use transform="matrix(0.05,0,0,0.05,12,0)" xlink:href="#ad"/><use transform="matrix(0.05,0,0,0.05,17,0)" xlink:href="#X"/><use transform="matrix(0.05,0,0,0.05,27,0)" xlink:href="#ag"/></g><g id="u"><use transform="matrix(0.05,0,0,0.05,0,0)" xlink:href="#at"/><use transform="matrix(0.05,0,0,0.05,10.950000000000001,0)" xlink:href="#au"/><use transform="matrix(0.05,0,0,0.05,20.950000000000003,0)" xlink:href="#av"/><use transform="matrix(0.05,0,0,0.05,26.900000000000002,0)" xlink:href="#aw"/><use transform="matrix(0.05,0,0,0.05,39.85,0)" xlink:href="#ax"/><use transform="matrix(0.05,0,0,0.05,50.800000000000004,0)" xlink:href="#ay"/><use transform="matrix(0.05,0,0,0.05,64.80000000000001,0)" xlink:href="#az"/><use transform="matrix(0.05,0,0,0.05,74.80000000000001,0)" xlink:href="#aA"/><use transform="matrix(0.05,0,0,0.05,80.75000000000001,0)" xlink:href="#aB"/><use transform="matrix(0.05,0,0,0.05,86.70000000000002,0)" xlink:href="#ae"/><use transform="matrix(0.05,0,0,0.05,91.70000000000002,0)" xlink:href="#ak"/><use transform="matrix(0.05,0,0,0.05,104.65000000000003,0)" xlink:href="#ah"/><use transform="matrix(0.05,0,0,0.05,114.65000000000003,0)" xlink:href="#al"/><use transform="matrix(0.05,0,0,0.05,118.60000000000002,0)" xlink:href="#al"/><use transform="matrix(0.05,0,0,0.05,122.55000000000003,0)" xlink:href="#Z"/><use transform="matrix(0.05,0,0,0.05,132.55,0)" xlink:href="#am"/><use transform="matrix(0.05,0,0,0.05,141.55,0)" xlink:href="#ad"/><use transform="matrix(0.05,0,0,0.05,146.55,0)" xlink:href="#ab"/><use transform="matrix(0.05,0,0,0.05,150.5,0)" xlink:href="#ah"/><use transform="matrix(0.05,0,0,0.05,160.5,0)" xlink:href="#af"/><use transform="matrix(0.05,0,0,0.05,170.5,0)" xlink:href="#an"/><use transform="matrix(0.05,0,0,0.05,175.5,0)" xlink:href="#af"/><use transform="matrix(0.05,0,0,0.05,185.5,0)" xlink:href="#ad"/><use transform="matrix(0.05,0,0,0.05,190.5,0)" xlink:href="#Z"/><use transform="matrix(0.05,0,0,0.05,200.5,0)" xlink:href="#ag"/><use transform="matrix(0.05,0,0,0.05,206.44999999999996,0)" xlink:href="#ao"/><use transform="matrix(0.05,0,0,0.05,211.44999999999996,0)" xlink:href="#X"/><use transform="matrix(0.05,0,0,0.05,221.44999999999996,0)" xlink:href="#am"/><use transform="matrix(0.05,0,0,0.05,230.44999999999996,0)" xlink:href="#Z"/></g><g id="v"><use transform="matrix(0.05,0,0,0.05,0,0)" xlink:href="#ab"/><use transform="matrix(0.05,0,0,0.05,3.95,0)" xlink:href="#aj"/></g><use transform="matrix(0.05,0,0,0.05,0,0)" xlink:href="#X" id="w"/><path fill="#333" d="M127-220V0H93v-220H8v-28h204v28h-85" id="aJ"/><g id="x"><use transform="matrix(0.05,0,0,0.05,0,0)" xlink:href="#aJ"/><use transform="matrix(0.05,0,0,0.05,10.3,0)" xlink:href="#ag"/><use transform="matrix(0.05,0,0,0.05,16.25,0)" xlink:href="#Z"/><use transform="matrix(0.05,0,0,0.05,26.25,0)" xlink:href="#Z"/></g><path fill="#333" d="M143 4C61 4 22-44 18-125c-5-107 100-154 193-111 17 8 29 25 37 43l-32 9c-13-25-37-40-76-40-61 0-88 39-88 99 0 61 29 100 91 101 35 0 62-11 79-27v-45h-74v-28h105v86C228-13 192 4 143 4" id="aK"/><g id="y"><use transform="matrix(0.05,0,0,0.05,0,0)" xlink:href="#V"/><use transform="matrix(0.05,0,0,0.05,12,0)" xlink:href="#W"/><use transform="matrix(0.05,0,0,0.05,22,0)" xlink:href="#X"/><use transform="matrix(0.05,0,0,0.05,32,0)" xlink:href="#Y"/><use transform="matrix(0.05,0,0,0.05,42,0)" xlink:href="#Z"/><use transform="matrix(0.05,0,0,0.05,52,0)" xlink:href="#aK"/><use transform="matrix(0.05,0,0,0.05,66,0)" xlink:href="#Z"/><use transform="matrix(0.05,0,0,0.05,76,0)" xlink:href="#af"/><use transform="matrix(0.05,0,0,0.05,86,0)" xlink:href="#Z"/><use transform="matrix(0.05,0,0,0.05,96,0)" xlink:href="#ag"/><use transform="matrix(0.05,0,0,0.05,101.95,0)" xlink:href="#X"/><use transform="matrix(0.05,0,0,0.05,111.95,0)" xlink:href="#ad"/><use transform="matrix(0.05,0,0,0.05,116.95,0)" xlink:href="#ah"/><use transform="matrix(0.05,0,0,0.05,126.95,0)" xlink:href="#ag"/></g><g id="z"><use transform="matrix(0.05,0,0,0.05,0,0)" xlink:href="#ac"/><use transform="matrix(0.05,0,0,0.05,10,0)" xlink:href="#Z"/><use transform="matrix(0.05,0,0,0.05,20,0)" xlink:href="#ad"/><use transform="matrix(0.05,0,0,0.05,25,0)" xlink:href="#aK"/><use transform="matrix(0.05,0,0,0.05,39,0)" xlink:href="#Z"/><use transform="matrix(0.05,0,0,0.05,49,0)" xlink:href="#af"/><use transform="matrix(0.05,0,0,0.05,59,0)" xlink:href="#Z"/><use transform="matrix(0.05,0,0,0.05,69,0)" xlink:href="#ag"/><use transform="matrix(0.05,0,0,0.05,74.95,0)" xlink:href="#X"/><use transform="matrix(0.05,0,0,0.05,84.95,0)" xlink:href="#ad"/><use transform="matrix(0.05,0,0,0.05,89.95,0)" xlink:href="#Z"/><use transform="matrix(0.05,0,0,0.05,99.95,0)" xlink:href="#aD"/><use transform="matrix(0.05,0,0,0.05,109.95,0)" xlink:href="#V"/><use transform="matrix(0.05,0,0,0.05,121.95,0)" xlink:href="#W"/><use transform="matrix(0.05,0,0,0.05,131.95,0)" xlink:href="#X"/><use transform="matrix(0.05,0,0,0.05,141.95,0)" xlink:href="#Y"/><use transform="matrix(0.05,0,0,0.05,151.95,0)" xlink:href="#Z"/><use transform="matrix(0.05,0,0,0.05,161.95,0)" xlink:href="#ar"/><use transform="matrix(0.05,0,0,0.05,167.89999999999998,0)" xlink:href="#as"/><use transform="matrix(0.05,0,0,0.05,173.84999999999997,0)" xlink:href="#ae"/><use transform="matrix(0.05,0,0,0.05,178.84999999999997,0)" xlink:href="#ak"/><use transform="matrix(0.05,0,0,0.05,191.79999999999995,0)" xlink:href="#ah"/><use transform="matrix(0.05,0,0,0.05,201.79999999999995,0)" xlink:href="#al"/><use transform="matrix(0.05,0,0,0.05,205.74999999999991,0)" xlink:href="#al"/><use transform="matrix(0.05,0,0,0.05,209.69999999999993,0)" xlink:href="#Z"/><use transform="matrix(0.05,0,0,0.05,219.69999999999993,0)" xlink:href="#am"/><use transform="matrix(0.05,0,0,0.05,228.69999999999993,0)" xlink:href="#ad"/><use transform="matrix(0.05,0,0,0.05,233.69999999999993,0)" xlink:href="#ab"/><use transform="matrix(0.05,0,0,0.05,237.64999999999992,0)" xlink:href="#ah"/><use transform="matrix(0.05,0,0,0.05,247.64999999999992,0)" xlink:href="#af"/><use transform="matrix(0.05,0,0,0.05,257.6499999999999,0)" xlink:href="#an"/><use transform="matrix(0.05,0,0,0.05,262.6499999999999,0)" xlink:href="#af"/><use transform="matrix(0.05,0,0,0.05,272.6499999999999,0)" xlink:href="#ad"/><use transform="matrix(0.05,0,0,0.05,277.6499999999999,0)" xlink:href="#Z"/><use transform="matrix(0.05,0,0,0.05,287.6499999999999,0)" xlink:href="#ag"/><use transform="matrix(0.05,0,0,0.05,293.5999999999999,0)" xlink:href="#ao"/><use transform="matrix(0.05,0,0,0.05,298.5999999999999,0)" xlink:href="#X"/><use transform="matrix(0.05,0,0,0.05,308.5999999999999,0)" xlink:href="#am"/><use transform="matrix(0.05,0,0,0.05,317.5999999999999,0)" xlink:href="#Z"/></g><use transform="matrix(0.05,0,0,0.05,0,0)" xlink:href="#aa" id="A"/><path fill="#333" d="M151-194c95 0 34 128 28 194h-49l25-134c0-29-45-25-59-9C67-111 69-48 56 0H6l36-190h47l-4 32c15-20 33-36 66-36" id="aL"/><path fill="#333" d="M84-151c13-25 34-51 72-40l-8 41C67-170 71-64 56 0H6l36-190h47" id="aM"/><path fill="#333" d="M166-52c-4 17 5 29 24 23l-3 27c-30 11-74 1-67-34C105-15 91 4 56 4 23 4 3-15 2-49c0-64 63-67 128-67 10-22 3-53-29-45-13 3-22 10-25 24l-46-5c5-64 156-77 153 0-1 33-11 60-17 90zM97-88c-44-9-64 57-19 57 31 0 42-28 47-57H97" id="aN"/><path fill="#333" d="M178-136c88 48 22 151-73 140C49-3 12-15 4-64l51-9c1 50 111 53 115 3-16-63-132-20-133-112 0-93 190-91 199-10l-50 12c-4-41-93-50-97-4 7 38 59 32 89 48" id="aO"/><path fill="#333" d="M150-105c8-23 8-54-22-51-68 7-54 98-72 156H6l50-261h50L85-158c15-20 33-36 66-36 95 0 34 128 28 194h-49" id="aP"/><path fill="#333" d="M156-122c2-23-7-37-28-37-47 0-58 44-58 89 0 24 12 40 36 40 43 0 47-49 50-92zM-8 75l50-265h48c0 10-3 24-3 30 22-50 127-45 121 29-6 73-21 135-92 135-29 0-46-14-55-35L41 75H-8" id="aQ"/><path fill="#333" d="M108 0H70L1-190h34L89-25l56-165h34" id="aR"/><g id="B"><use transform="matrix(0.05,0,0,0.05,0,0)" xlink:href="#at"/><use transform="matrix(0.05,0,0,0.05,10.950000000000001,0)" xlink:href="#au"/><use transform="matrix(0.05,0,0,0.05,20.950000000000003,0)" xlink:href="#aL"/><use transform="matrix(0.05,0,0,0.05,31.900000000000006,0)" xlink:href="#au"/><use transform="matrix(0.05,0,0,0.05,41.900000000000006,0)" xlink:href="#aM"/><use transform="matrix(0.05,0,0,0.05,48.900000000000006,0)" xlink:href="#aN"/><use transform="matrix(0.05,0,0,0.05,58.900000000000006,0)" xlink:href="#av"/><use transform="matrix(0.05,0,0,0.05,64.85000000000001,0)" xlink:href="#au"/><use transform="matrix(0.05,0,0,0.05,74.85000000000001,0)" xlink:href="#aO"/><use transform="matrix(0.05,0,0,0.05,86.85000000000001,0)" xlink:href="#aP"/><use transform="matrix(0.05,0,0,0.05,97.80000000000001,0)" xlink:href="#aN"/><use transform="matrix(0.05,0,0,0.05,107.80000000000001,0)" xlink:href="#aQ"/><use transform="matrix(0.05,0,0,0.05,118.75,0)" xlink:href="#au"/><use transform="matrix(0.05,0,0,0.05,128.75,0)" xlink:href="#ar"/><use transform="matrix(0.05,0,0,0.05,134.7,0)" xlink:href="#as"/><use transform="matrix(0.05,0,0,0.05,140.64999999999998,0)" xlink:href="#ae"/><use transform="matrix(0.05,0,0,0.05,145.64999999999998,0)" xlink:href="#aR"/><use transform="matrix(0.05,0,0,0.05,154.64999999999998,0)" xlink:href="#ah"/><use transform="matrix(0.05,0,0,0.05,164.64999999999998,0)" xlink:href="#ab"/><use transform="matrix(0.05,0,0,0.05,168.59999999999997,0)" xlink:href="#aD"/></g><path fill="#333" d="M205 0l-28-72H64L36 0H1l101-248h38L239 0h-34zm-38-99l-47-123c-12 45-31 82-46 123h93" id="aS"/><g id="C"><use transform="matrix(0.05,0,0,0.05,0,0)" xlink:href="#aS"/><use transform="matrix(0.05,0,0,0.05,12,0)" xlink:href="#al"/><use transform="matrix(0.05,0,0,0.05,15.949999999999998,0)" xlink:href="#ab"/><use transform="matrix(0.05,0,0,0.05,19.9,0)" xlink:href="#ac"/><use transform="matrix(0.05,0,0,0.05,29.899999999999995,0)" xlink:href="#af"/><use transform="matrix(0.05,0,0,0.05,39.9,0)" xlink:href="#ak"/><use transform="matrix(0.05,0,0,0.05,52.85,0)" xlink:href="#Z"/><use transform="matrix(0.05,0,0,0.05,62.85,0)" xlink:href="#af"/><use transform="matrix(0.05,0,0,0.05,72.85,0)" xlink:href="#ad"/><use transform="matrix(0.05,0,0,0.05,77.85,0)" xlink:href="#Z"/><use transform="matrix(0.05,0,0,0.05,87.85,0)" xlink:href="#ag"/><use transform="matrix(0.05,0,0,0.05,93.8,0)" xlink:href="#V"/><use transform="matrix(0.05,0,0,0.05,105.80000000000001,0)" xlink:href="#W"/><use transform="matrix(0.05,0,0,0.05,115.80000000000001,0)" xlink:href="#X"/><use transform="matrix(0.05,0,0,0.05,125.80000000000001,0)" xlink:href="#Y"/><use transform="matrix(0.05,0,0,0.05,135.8,0)" xlink:href="#Z"/><use transform="matrix(0.05,0,0,0.05,145.8,0)" xlink:href="#aK"/><use transform="matrix(0.05,0,0,0.05,159.8,0)" xlink:href="#Z"/><use transform="matrix(0.05,0,0,0.05,169.8,0)" xlink:href="#af"/><use transform="matrix(0.05,0,0,0.05,179.8,0)" xlink:href="#Z"/><use transform="matrix(0.05,0,0,0.05,189.8,0)" xlink:href="#ag"/><use transform="matrix(0.05,0,0,0.05,195.75,0)" xlink:href="#X"/><use transform="matrix(0.05,0,0,0.05,205.75,0)" xlink:href="#ad"/><use transform="matrix(0.05,0,0,0.05,210.75,0)" xlink:href="#ah"/><use transform="matrix(0.05,0,0,0.05,220.75,0)" xlink:href="#ag"/></g><g id="D"><use transform="matrix(0.05,0,0,0.05,0,0)" xlink:href="#ac"/><use transform="matrix(0.05,0,0,0.05,10,0)" xlink:href="#Z"/><use transform="matrix(0.05,0,0,0.05,20,0)" xlink:href="#af"/><use transform="matrix(0.05,0,0,0.05,30,0)" xlink:href="#Z"/><use transform="matrix(0.05,0,0,0.05,40,0)" xlink:href="#ag"/><use transform="matrix(0.05,0,0,0.05,45.95,0)" xlink:href="#X"/><use transform="matrix(0.05,0,0,0.05,55.95,0)" xlink:href="#ad"/><use transform="matrix(0.05,0,0,0.05,60.95,0)" xlink:href="#Z"/><use transform="matrix(0.05,0,0,0.05,70.95,0)" xlink:href="#V"/><use transform="matrix(0.05,0,0,0.05,82.95,0)" xlink:href="#W"/><use transform="matrix(0.05,0,0,0.05,92.95,0)" xlink:href="#X"/><use transform="matrix(0.05,0,0,0.05,102.95,0)" xlink:href="#Y"/><use transform="matrix(0.05,0,0,0.05,112.95,0)" xlink:href="#Z"/><use transform="matrix(0.05,0,0,0.05,122.95,0)" xlink:href="#ar"/><use transform="matrix(0.05,0,0,0.05,128.9,0)" xlink:href="#as"/><use transform="matrix(0.05,0,0,0.05,134.85,0)" xlink:href="#ae"/><use transform="matrix(0.05,0,0,0.05,139.85,0)" xlink:href="#aR"/><use transform="matrix(0.05,0,0,0.05,148.85,0)" xlink:href="#ah"/><use transform="matrix(0.05,0,0,0.05,158.85,0)" xlink:href="#ab"/><use transform="matrix(0.05,0,0,0.05,162.79999999999998,0)" xlink:href="#aD"/></g><path fill="#333" d="M16-82v-28h88v28H16" id="aT"/><use transform="matrix(0.05,0,0,0.05,0,0)" xlink:href="#aT" id="E"/><path fill="#333" d="M9 0v-24l116-142H16v-24h144v24L44-24h123V0H9" id="aU"/><g id="F"><use transform="matrix(0.05,0,0,0.05,0,0)" xlink:href="#ac"/><use transform="matrix(0.05,0,0,0.05,10,0)" xlink:href="#Z"/><use transform="matrix(0.05,0,0,0.05,20,0)" xlink:href="#ad"/><use transform="matrix(0.05,0,0,0.05,25,0)" xlink:href="#aJ"/><use transform="matrix(0.05,0,0,0.05,35.95,0)" xlink:href="#W"/><use transform="matrix(0.05,0,0,0.05,45.95,0)" xlink:href="#Z"/><use transform="matrix(0.05,0,0,0.05,55.95,0)" xlink:href="#aC"/><use transform="matrix(0.05,0,0,0.05,70.9,0)" xlink:href="#ah"/><use transform="matrix(0.05,0,0,0.05,80.9,0)" xlink:href="#aj"/><use transform="matrix(0.05,0,0,0.05,89.9,0)" xlink:href="#ad"/><use transform="matrix(0.05,0,0,0.05,94.9,0)" xlink:href="#aG"/><use transform="matrix(0.05,0,0,0.05,107.85000000000001,0)" xlink:href="#ah"/><use transform="matrix(0.05,0,0,0.05,117.85000000000001,0)" xlink:href="#ai"/><use transform="matrix(0.05,0,0,0.05,130.8,0)" xlink:href="#V"/><use transform="matrix(0.05,0,0,0.05,142.8,0)" xlink:href="#ab"/><use transform="matrix(0.05,0,0,0.05,146.75,0)" xlink:href="#aU"/><use transform="matrix(0.05,0,0,0.05,155.75,0)" xlink:href="#Z"/><use transform="matrix(0.05,0,0,0.05,165.75,0)" xlink:href="#ar"/><use transform="matrix(0.05,0,0,0.05,171.7,0)" xlink:href="#as"/><use transform="matrix(0.05,0,0,0.05,177.64999999999998,0)" xlink:href="#ae"/><use transform="matrix(0.05,0,0,0.05,182.64999999999998,0)" xlink:href="#ab"/><use transform="matrix(0.05,0,0,0.05,186.59999999999997,0)" xlink:href="#af"/><use transform="matrix(0.05,0,0,0.05,196.59999999999997,0)" xlink:href="#ad"/></g><path fill="#333" d="M179-190L93 31C79 59 56 82 12 73V49c39 6 53-20 64-50L1-190h34L92-34l54-156h33" id="aV"/><g id="G"><use transform="matrix(0.05,0,0,0.05,0,0)" xlink:href="#ac"/><use transform="matrix(0.05,0,0,0.05,10,0)" xlink:href="#Z"/><use transform="matrix(0.05,0,0,0.05,20,0)" xlink:href="#ad"/><use transform="matrix(0.05,0,0,0.05,25,0)" xlink:href="#V"/><use transform="matrix(0.05,0,0,0.05,37,0)" xlink:href="#Y"/><use transform="matrix(0.05,0,0,0.05,47,0)" xlink:href="#X"/><use transform="matrix(0.05,0,0,0.05,57,0)" xlink:href="#am"/><use transform="matrix(0.05,0,0,0.05,66,0)" xlink:href="#Z"/><use transform="matrix(0.05,0,0,0.05,76,0)" xlink:href="#aS"/><use transform="matrix(0.05,0,0,0.05,88,0)" xlink:href="#ag"/><use transform="matrix(0.05,0,0,0.05,93.95,0)" xlink:href="#ag"/><use transform="matrix(0.05,0,0,0.05,99.9,0)" xlink:href="#X"/><use transform="matrix(0.05,0,0,0.05,109.9,0)" xlink:href="#aV"/><use transform="matrix(0.05,0,0,0.05,118.9,0)" xlink:href="#ar"/><use transform="matrix(0.05,0,0,0.05,124.85000000000001,0)" xlink:href="#ab"/><use transform="matrix(0.05,0,0,0.05,128.8,0)" xlink:href="#af"/><use transform="matrix(0.05,0,0,0.05,138.8,0)" xlink:href="#ad"/></g><g id="H"><use transform="matrix(0.05,0,0,0.05,0,0)" xlink:href="#aj"/><use transform="matrix(0.05,0,0,0.05,9,0)" xlink:href="#ab"/><use transform="matrix(0.05,0,0,0.05,12.949999999999998,0)" xlink:href="#aU"/><use transform="matrix(0.05,0,0,0.05,21.95,0)" xlink:href="#Z"/><use transform="matrix(0.05,0,0,0.05,31.950000000000003,0)" xlink:href="#as"/><use transform="matrix(0.05,0,0,0.05,37.9,0)" xlink:href="#ae"/><use transform="matrix(0.05,0,0,0.05,42.9,0)" xlink:href="#X"/><use transform="matrix(0.05,0,0,0.05,52.900000000000006,0)" xlink:href="#ag"/><use transform="matrix(0.05,0,0,0.05,58.85,0)" xlink:href="#ag"/><use transform="matrix(0.05,0,0,0.05,64.8,0)" xlink:href="#X"/><use transform="matrix(0.05,0,0,0.05,74.8,0)" xlink:href="#aV"/></g><path fill="#333" d="M190 0L58-211 59 0H30v-248h39L202-35l-2-213h31V0h-41" id="aW"/><path fill="#333" d="M84 4C-5 8 30-112 23-190h32v120c0 31 7 50 39 49 72-2 45-101 50-169h31l1 190h-30c-1-10 1-25-2-33-11 22-28 36-60 37" id="aX"/><path fill="#333" d="M210-169c-67 3-38 105-44 169h-31v-121c0-29-5-50-35-48C34-165 62-65 56 0H25l-1-190h30c1 10-1 24 2 32 10-44 99-50 107 0 11-21 27-35 58-36 85-2 47 119 55 194h-31v-121c0-29-5-49-35-48" id="aY"/><path fill="#333" d="M140-251c81 0 123 46 123 126C263-46 219 4 140 4 59 4 17-45 17-125s42-126 123-126zm0 227c63 0 89-41 89-101s-29-99-89-99c-61 0-89 39-89 99S79-25 140-24" id="aZ"/><path fill="#333" d="M30 0v-248h187v28H63v79h144v27H63v87h162V0H30" id="ba"/><g id="I"><use transform="matrix(0.05,0,0,0.05,0,0)" xlink:href="#ac"/><use transform="matrix(0.05,0,0,0.05,10,0)" xlink:href="#Z"/><use transform="matrix(0.05,0,0,0.05,20,0)" xlink:href="#ad"/><use transform="matrix(0.05,0,0,0.05,25,0)" xlink:href="#aW"/><use transform="matrix(0.05,0,0,0.05,37.95,0)" xlink:href="#aX"/><use transform="matrix(0.05,0,0,0.05,47.95,0)" xlink:href="#aY"/><use transform="matrix(0.05,0,0,0.05,62.900000000000006,0)" xlink:href="#aH"/><use transform="matrix(0.05,0,0,0.05,72.9,0)" xlink:href="#Z"/><use transform="matrix(0.05,0,0,0.05,82.9,0)" xlink:href="#ag"/><use transform="matrix(0.05,0,0,0.05,88.85000000000001,0)" xlink:href="#aZ"/><use transform="matrix(0.05,0,0,0.05,102.85000000000001,0)" xlink:href="#ao"/><use transform="matrix(0.05,0,0,0.05,107.85000000000001,0)" xlink:href="#ba"/><use transform="matrix(0.05,0,0,0.05,119.85000000000001,0)" xlink:href="#aY"/><use transform="matrix(0.05,0,0,0.05,134.8,0)" xlink:href="#Y"/><use transform="matrix(0.05,0,0,0.05,144.8,0)" xlink:href="#ad"/><use transform="matrix(0.05,0,0,0.05,149.8,0)" xlink:href="#aV"/><use transform="matrix(0.05,0,0,0.05,158.8,0)" xlink:href="#ak"/><use transform="matrix(0.05,0,0,0.05,171.75,0)" xlink:href="#Z"/><use transform="matrix(0.05,0,0,0.05,181.75,0)" xlink:href="#al"/><use transform="matrix(0.05,0,0,0.05,185.7,0)" xlink:href="#al"/><use transform="matrix(0.05,0,0,0.05,189.64999999999998,0)" xlink:href="#aj"/><use transform="matrix(0.05,0,0,0.05,198.64999999999998,0)" xlink:href="#ar"/><use transform="matrix(0.05,0,0,0.05,204.59999999999997,0)" xlink:href="#ab"/><use transform="matrix(0.05,0,0,0.05,208.54999999999995,0)" xlink:href="#af"/><use transform="matrix(0.05,0,0,0.05,218.54999999999995,0)" xlink:href="#ad"/></g><path fill="#333" d="M68-38c1 34 0 65-14 84H32c9-13 17-26 17-46H33v-38h35" id="bb"/><g id="J"><use transform="matrix(0.05,0,0,0.05,0,0)" xlink:href="#aY"/><use transform="matrix(0.05,0,0,0.05,14.950000000000001,0)" xlink:href="#ah"/><use transform="matrix(0.05,0,0,0.05,24.950000000000003,0)" xlink:href="#aj"/><use transform="matrix(0.05,0,0,0.05,33.95,0)" xlink:href="#ad"/><use transform="matrix(0.05,0,0,0.05,38.95,0)" xlink:href="#V"/><use transform="matrix(0.05,0,0,0.05,50.95,0)" xlink:href="#ab"/><use transform="matrix(0.05,0,0,0.05,54.900000000000006,0)" xlink:href="#aU"/><use transform="matrix(0.05,0,0,0.05,63.900000000000006,0)" xlink:href="#Z"/><use transform="matrix(0.05,0,0,0.05,73.9,0)" xlink:href="#bb"/></g><g id="K"><use transform="matrix(0.05,0,0,0.05,0,0)" xlink:href="#X"/><use transform="matrix(0.05,0,0,0.05,10,0)" xlink:href="#ag"/><use transform="matrix(0.05,0,0,0.05,15.949999999999998,0)" xlink:href="#ag"/><use transform="matrix(0.05,0,0,0.05,21.9,0)" xlink:href="#X"/><use transform="matrix(0.05,0,0,0.05,31.899999999999995,0)" xlink:href="#aV"/></g><path fill="#333" d="M194-70c0 46-34 64-81 66v29H91V-4C42-5 12-27 4-67l30-6c5 28 25 41 57 43v-87c-38-9-76-20-76-67 1-42 33-58 76-59v-23h22v23c45 0 67 20 76 56l-31 6c-5-23-18-35-45-37v78c41 10 81 20 81 70zm-81 41c51 7 71-66 19-77-6-2-12-4-19-6v83zM91-219c-47-6-63 57-18 69 6 2 12 3 18 5v-74" id="bc"/><g id="L"><use transform="matrix(0.05,0,0,0.05,0,0)" xlink:href="#bc"/><use transform="matrix(0.05,0,0,0.05,10,0)" xlink:href="#ag"/><use transform="matrix(0.05,0,0,0.05,15.949999999999998,0)" xlink:href="#ah"/><use transform="matrix(0.05,0,0,0.05,25.950000000000003,0)" xlink:href="#ai"/><use transform="matrix(0.05,0,0,0.05,38.9,0)" xlink:href="#as"/></g><g id="M"><use transform="matrix(0.05,0,0,0.05,0,0)" xlink:href="#aS"/><use transform="matrix(0.05,0,0,0.05,12,0)" xlink:href="#al"/><use transform="matrix(0.05,0,0,0.05,15.949999999999998,0)" xlink:href="#ab"/><use transform="matrix(0.05,0,0,0.05,19.9,0)" xlink:href="#ac"/><use transform="matrix(0.05,0,0,0.05,29.899999999999995,0)" xlink:href="#af"/><use transform="matrix(0.05,0,0,0.05,39.9,0)" xlink:href="#aI"/><use transform="matrix(0.05,0,0,0.05,49.9,0)" xlink:href="#Z"/><use transform="matrix(0.05,0,0,0.05,59.900000000000006,0)" xlink:href="#ao"/><use transform="matrix(0.05,0,0,0.05,64.9,0)" xlink:href="#ad"/><use transform="matrix(0.05,0,0,0.05,69.9,0)" xlink:href="#V"/><use transform="matrix(0.05,0,0,0.05,81.9,0)" xlink:href="#W"/><use transform="matrix(0.05,0,0,0.05,91.9,0)" xlink:href="#X"/><use transform="matrix(0.05,0,0,0.05,101.9,0)" xlink:href="#Y"/><use transform="matrix(0.05,0,0,0.05,111.9,0)" xlink:href="#Z"/><use transform="matrix(0.05,0,0,0.05,121.9,0)" xlink:href="#aK"/><use transform="matrix(0.05,0,0,0.05,135.9,0)" xlink:href="#Z"/><use transform="matrix(0.05,0,0,0.05,145.9,0)" xlink:href="#af"/><use transform="matrix(0.05,0,0,0.05,155.9,0)" xlink:href="#Z"/><use transform="matrix(0.05,0,0,0.05,165.9,0)" xlink:href="#ag"/><use transform="matrix(0.05,0,0,0.05,171.85,0)" xlink:href="#X"/><use transform="matrix(0.05,0,0,0.05,181.85,0)" xlink:href="#ad"/><use transform="matrix(0.05,0,0,0.05,186.85,0)" xlink:href="#ah"/><use transform="matrix(0.05,0,0,0.05,196.85,0)" xlink:href="#ag"/></g><g id="N"><use transform="matrix(0.05,0,0,0.05,0,0)" xlink:href="#aq"/><use transform="matrix(0.05,0,0,0.05,12.950000000000001,0)" xlink:href="#X"/><use transform="matrix(0.05,0,0,0.05,22.950000000000003,0)" xlink:href="#aj"/></g><path d="M15-91v-56l181-69v40L49-119l147 57v40" id="bd"/><path d="M25-224v-37h50v37H25zM25 0v-190h50V0H25" id="be"/><path d="M135-194c87-1 58 113 63 194h-50c-7-57 23-157-34-157-59 0-34 97-39 157H25l-1-190h47c2 12-1 28 3 38 12-26 28-41 61-42" id="bf"/><path d="M115-3C79 11 28 4 28-45v-112H4v-33h27l15-45h31v45h36v33H77v99c-1 23 16 31 38 25v30" id="bg"/><path d="M185-48c-13 30-37 53-82 52C43 2 14-33 14-96s30-98 90-98c62 0 83 45 84 108H66c0 31 8 55 39 56 18 0 30-7 34-22zm-45-69c5-46-57-63-70-21-2 6-4 13-4 21h74" id="bh"/><path d="M135-150c-39-12-60 13-60 57V0H25l-1-190h47c2 13-1 29 3 40 6-28 27-53 61-41v41" id="bi"/><path d="M121-226c-27-7-43 5-38 36h38v33H83V0H34v-157H6v-33h28c-9-59 32-81 87-68v32" id="bj"/><path d="M133-34C117-15 103 5 69 4 32 3 11-16 11-54c-1-60 55-63 116-61 1-26-3-47-28-47-18 1-26 9-28 27l-52-2c7-38 36-58 82-57s74 22 75 68l1 82c-1 14 12 18 25 15v27c-30 8-71 5-69-32zm-48 3c29 0 43-24 42-57-32 0-66-3-65 30 0 17 8 27 23 27" id="bk"/><path d="M190-63c-7 42-38 67-86 67-59 0-84-38-90-98-12-110 154-137 174-36l-49 2c-2-19-15-32-35-32-30 0-35 28-38 64-6 74 65 87 74 30" id="bl"/><path d="M15-22v-40l146-57-146-57v-40l181 69v56" id="bm"/><g id="O"><use transform="matrix(0.05,0,0,0.05,0,0)" xlink:href="#bd"/><use transform="matrix(0.05,0,0,0.05,10.5,0)" xlink:href="#bd"/><use transform="matrix(0.05,0,0,0.05,21,0)" xlink:href="#be"/><use transform="matrix(0.05,0,0,0.05,26,0)" xlink:href="#bf"/><use transform="matrix(0.05,0,0,0.05,36.95,0)" xlink:href="#bg"/><use transform="matrix(0.05,0,0,0.05,42.900000000000006,0)" xlink:href="#bh"/><use transform="matrix(0.05,0,0,0.05,52.900000000000006,0)" xlink:href="#bi"/><use transform="matrix(0.05,0,0,0.05,59.900000000000006,0)" xlink:href="#bj"/><use transform="matrix(0.05,0,0,0.05,65.85000000000001,0)" xlink:href="#bk"/><use transform="matrix(0.05,0,0,0.05,75.85000000000001,0)" xlink:href="#bl"/><use transform="matrix(0.05,0,0,0.05,85.85000000000001,0)" xlink:href="#bh"/><use transform="matrix(0.05,0,0,0.05,95.85000000000001,0)" xlink:href="#bm"/><use transform="matrix(0.05,0,0,0.05,106.35000000000001,0)" xlink:href="#bm"/></g><path d="M240-174c0 40-23 61-54 70L253 0h-59l-57-94H76V0H24v-248c93 4 217-23 216 74zM76-134c48-2 112 12 112-38 0-48-66-32-112-35v73" id="bn"/><path d="M110-194c64 0 96 36 96 99 0 64-35 99-97 99-61 0-95-36-95-99 0-62 34-99 96-99zm-1 164c35 0 45-28 45-65 0-40-10-65-43-65-34 0-45 26-45 65 0 36 10 65 43 65" id="bo"/><path d="M231 0h-52l-39-155L100 0H48L-1-190h46L77-45c9-52 24-97 36-145h53l37 145 32-145h46" id="bp"/><path d="M137-138c1-29-70-34-71-4 15 46 118 7 119 86 1 83-164 76-172 9l43-7c4 19 20 25 44 25 33 8 57-30 24-41C81-84 22-81 20-136c-2-80 154-74 161-7" id="bq"/><path d="M88-194c31-1 46 15 58 34l-1-101h50l1 261h-48c-2-10 0-23-3-31C134-8 116 4 84 4 32 4 16-41 15-95c0-56 19-97 73-99zm17 164c33 0 40-30 41-66 1-37-9-64-41-64s-38 30-39 65c0 43 13 65 39 65" id="br"/><g id="P"><use transform="matrix(0.05,0,0,0.05,0,0)" xlink:href="#bn"/><use transform="matrix(0.05,0,0,0.05,12.950000000000001,0)" xlink:href="#bo"/><use transform="matrix(0.05,0,0,0.05,23.900000000000002,0)" xlink:href="#bp"/><use transform="matrix(0.05,0,0,0.05,37.900000000000006,0)" xlink:href="#bq"/><use transform="matrix(0.05,0,0,0.05,47.900000000000006,0)" xlink:href="#bn"/><use transform="matrix(0.05,0,0,0.05,60.85,0)" xlink:href="#bh"/><use transform="matrix(0.05,0,0,0.05,70.85000000000001,0)" xlink:href="#bf"/><use transform="matrix(0.05,0,0,0.05,81.80000000000001,0)" xlink:href="#br"/><use transform="matrix(0.05,0,0,0.05,92.75000000000001,0)" xlink:href="#bh"/><use transform="matrix(0.05,0,0,0.05,102.75,0)" xlink:href="#bi"/><use transform="matrix(0.05,0,0,0.05,109.75,0)" xlink:href="#bh"/><use transform="matrix(0.05,0,0,0.05,119.75,0)" xlink:href="#bi"/></g><g id="Q"><use transform="matrix(0.05,0,0,0.05,0,0)" xlink:href="#ag"/><use transform="matrix(0.05,0,0,0.05,5.95,0)" xlink:href="#Z"/><use transform="matrix(0.05,0,0,0.05,15.949999999999998,0)" xlink:href="#af"/><use transform="matrix(0.05,0,0,0.05,25.950000000000003,0)" xlink:href="#aD"/><use transform="matrix(0.05,0,0,0.05,35.95,0)" xlink:href="#Z"/><use transform="matrix(0.05,0,0,0.05,45.95,0)" xlink:href="#ag"/><use transform="matrix(0.05,0,0,0.05,51.900000000000006,0)" xlink:href="#ar"/><use transform="matrix(0.05,0,0,0.05,57.85,0)" xlink:href="#ak"/><use transform="matrix(0.05,0,0,0.05,70.80000000000001,0)" xlink:href="#ah"/><use transform="matrix(0.05,0,0,0.05,80.80000000000001,0)" xlink:href="#al"/><use transform="matrix(0.05,0,0,0.05,84.75000000000001,0)" xlink:href="#al"/><use transform="matrix(0.05,0,0,0.05,88.70000000000002,0)" xlink:href="#Z"/><use transform="matrix(0.05,0,0,0.05,98.70000000000002,0)" xlink:href="#am"/><use transform="matrix(0.05,0,0,0.05,107.7,0)" xlink:href="#ad"/><use transform="matrix(0.05,0,0,0.05,112.7,0)" xlink:href="#ab"/><use transform="matrix(0.05,0,0,0.05,116.65000000000003,0)" xlink:href="#ah"/><use transform="matrix(0.05,0,0,0.05,126.65000000000003,0)" xlink:href="#af"/><use transform="matrix(0.05,0,0,0.05,136.65000000000003,0)" xlink:href="#an"/><use transform="matrix(0.05,0,0,0.05,141.65000000000003,0)" xlink:href="#af"/><use transform="matrix(0.05,0,0,0.05,151.65000000000003,0)" xlink:href="#ad"/><use transform="matrix(0.05,0,0,0.05,156.65000000000003,0)" xlink:href="#Z"/><use transform="matrix(0.05,0,0,0.05,166.65000000000003,0)" xlink:href="#ag"/><use transform="matrix(0.05,0,0,0.05,172.60000000000002,0)" xlink:href="#ao"/><use transform="matrix(0.05,0,0,0.05,177.60000000000002,0)" xlink:href="#X"/><use transform="matrix(0.05,0,0,0.05,187.60000000000002,0)" xlink:href="#am"/><use transform="matrix(0.05,0,0,0.05,196.60000000000002,0)" xlink:href="#Z"/></g><g id="R"><use transform="matrix(0.05,0,0,0.05,0,0)" xlink:href="#ag"/><use transform="matrix(0.05,0,0,0.05,5.95,0)" xlink:href="#ah"/><use transform="matrix(0.05,0,0,0.05,15.949999999999998,0)" xlink:href="#ai"/><use transform="matrix(0.05,0,0,0.05,28.899999999999995,0)" xlink:href="#aj"/><use transform="matrix(0.05,0,0,0.05,37.9,0)" xlink:href="#as"/><use transform="matrix(0.05,0,0,0.05,43.85,0)" xlink:href="#ae"/></g><g id="S"><use transform="matrix(0.05,0,0,0.05,0,0)" xlink:href="#aj"/><use transform="matrix(0.05,0,0,0.05,9,0)" xlink:href="#ad"/><use transform="matrix(0.05,0,0,0.05,14,0)" xlink:href="#ag"/><use transform="matrix(0.05,0,0,0.05,19.95,0)" xlink:href="#ab"/><use transform="matrix(0.05,0,0,0.05,23.9,0)" xlink:href="#af"/><use transform="matrix(0.05,0,0,0.05,33.9,0)" xlink:href="#ac"/></g><g id="T"><use transform="matrix(0.05,0,0,0.05,0,0)" xlink:href="#aq"/><use transform="matrix(0.05,0,0,0.05,12.950000000000001,0)" xlink:href="#ad"/><use transform="matrix(0.05,0,0,0.05,17.950000000000003,0)" xlink:href="#aY"/><use transform="matrix(0.05,0,0,0.05,32.900000000000006,0)" xlink:href="#al"/><use transform="matrix(0.05,0,0,0.05,36.85000000000001,0)" xlink:href="#aG"/><use transform="matrix(0.05,0,0,0.05,49.80000000000001,0)" xlink:href="#ah"/><use transform="matrix(0.05,0,0,0.05,59.80000000000001,0)" xlink:href="#ai"/><use transform="matrix(0.05,0,0,0.05,72.75000000000001,0)" xlink:href="#aj"/><use transform="matrix(0.05,0,0,0.05,81.75000000000001,0)" xlink:href="#aG"/><use transform="matrix(0.05,0,0,0.05,94.70000000000002,0)" xlink:href="#Z"/><use transform="matrix(0.05,0,0,0.05,104.7,0)" xlink:href="#af"/><use transform="matrix(0.05,0,0,0.05,114.7,0)" xlink:href="#aD"/><use transform="matrix(0.05,0,0,0.05,124.7,0)" xlink:href="#Z"/><use transform="matrix(0.05,0,0,0.05,134.70000000000002,0)" xlink:href="#ag"/><use transform="matrix(0.05,0,0,0.05,140.65,0)" xlink:href="#Z"/><use transform="matrix(0.05,0,0,0.05,150.65,0)" xlink:href="#ag"/></g><g id="U"><use transform="matrix(0.05,0,0,0.05,0,0)" xlink:href="#ak"/><use transform="matrix(0.05,0,0,0.05,12.950000000000001,0)" xlink:href="#ah"/><use transform="matrix(0.05,0,0,0.05,22.950000000000003,0)" xlink:href="#af"/><use transform="matrix(0.05,0,0,0.05,32.95,0)" xlink:href="#aj"/><use transform="matrix(0.05,0,0,0.05,41.95,0)" xlink:href="#ah"/><use transform="matrix(0.05,0,0,0.05,51.95,0)" xlink:href="#al"/><use transform="matrix(0.05,0,0,0.05,55.900000000000006,0)" xlink:href="#Z"/><use transform="matrix(0.05,0,0,0.05,65.9,0)" xlink:href="#aG"/><use transform="matrix(0.05,0,0,0.05,78.85000000000001,0)" xlink:href="#ah"/><use transform="matrix(0.05,0,0,0.05,88.85000000000001,0)" xlink:href="#ai"/><use transform="matrix(0.05,0,0,0.05,101.80000000000001,0)" xlink:href="#aj"/><use transform="matrix(0.05,0,0,0.05,110.80000000000001,0)" xlink:href="#aG"/><use transform="matrix(0.05,0,0,0.05,123.75,0)" xlink:href="#Z"/><use transform="matrix(0.05,0,0,0.05,133.75,0)" xlink:href="#af"/><use transform="matrix(0.05,0,0,0.05,143.75,0)" xlink:href="#aD"/><use transform="matrix(0.05,0,0,0.05,153.75,0)" xlink:href="#Z"/><use transform="matrix(0.05,0,0,0.05,163.75,0)" xlink:href="#ag"/><use transform="matrix(0.05,0,0,0.05,169.7,0)" xlink:href="#Z"/><use transform="matrix(0.05,0,0,0.05,179.7,0)" xlink:href="#ag"/></g></defs></g></svg>